<svg width="32" height="32" viewBox="0 0 32 32" fill="none" xmlns="http://www.w3.org/2000/svg">
<path d="M27 4.5H5C4.33696 4.5 3.70107 4.76339 3.23223 5.23223C2.76339 5.70107 2.5 6.33696 2.5 7V25C2.5 25.663 2.76339 26.2989 3.23223 26.7678C3.70107 27.2366 4.33696 27.5 5 27.5H27C27.663 27.5 28.2989 27.2366 28.7678 26.7678C29.2366 26.2989 29.5 25.663 29.5 25V7C29.5 6.33696 29.2366 5.70107 28.7678 5.23223C28.2989 4.76339 27.663 4.5 27 4.5ZM26.5 24.5H5.5V7.5H26.5V24.5ZM9.5 11C9.5 10.6022 9.65804 10.2206 9.93934 9.93934C10.2206 9.65804 10.6022 9.5 11 9.5C11.3978 9.5 11.7794 9.65804 12.0607 9.93934C12.342 10.2206 12.5 10.6022 12.5 11C12.5 11.9283 12.8687 12.8185 13.5251 13.4749C14.1815 14.1313 15.0717 14.5 16 14.5C16.9283 14.5 17.8185 14.1313 18.4749 13.4749C19.1313 12.8185 19.5 11.9283 19.5 11C19.5 10.6022 19.658 10.2206 19.9393 9.93934C20.2206 9.65804 20.6022 9.5 21 9.5C21.3978 9.5 21.7794 9.65804 22.0607 9.93934C22.342 10.2206 22.5 10.6022 22.5 11C22.5 12.7239 21.8152 14.3772 20.5962 15.5962C19.3772 16.8152 17.7239 17.5 16 17.5C14.2761 17.5 12.6228 16.8152 11.4038 15.5962C10.1848 14.3772 9.5 12.7239 9.5 11Z" fill="black"/>
</svg>
