<svg width="16" height="16" viewBox="0 0 16 16" fill="none" xmlns="http://www.w3.org/2000/svg">
<g clip-path="url(#clip0_128_496)">
<path d="M15.9638 7.3125L15.0888 5.125C15.0145 4.93992 14.8864 4.78139 14.7211 4.66996C14.5557 4.55852 14.3607 4.49931 14.1613 4.5H12V4C12 3.86739 11.9473 3.74021 11.8536 3.64645C11.7598 3.55268 11.6326 3.5 11.5 3.5H2C1.73478 3.5 1.48043 3.60536 1.29289 3.79289C1.10536 3.98043 1 4.23478 1 4.5V11.5C1 11.7652 1.10536 12.0196 1.29289 12.2071C1.48043 12.3946 1.73478 12.5 2 12.5H3.0625C3.17265 12.9302 3.42285 13.3115 3.77366 13.5838C4.12446 13.8561 4.55592 14.0039 5 14.0039C5.44409 14.0039 5.87554 13.8561 6.22635 13.5838C6.57715 13.3115 6.82735 12.9302 6.9375 12.5H10.0625C10.1727 12.9302 10.4229 13.3115 10.7737 13.5838C11.1245 13.8561 11.5559 14.0039 12 14.0039C12.4441 14.0039 12.8755 13.8561 13.2263 13.5838C13.5772 13.3115 13.8274 12.9302 13.9375 12.5H15C15.2652 12.5 15.5196 12.3946 15.7071 12.2071C15.8946 12.0196 16 11.7652 16 11.5V7.5C16.0002 7.43574 15.9879 7.37206 15.9638 7.3125ZM12 5.5H14.1613L14.7613 7H12V5.5ZM2 4.5H11V8.5H2V4.5ZM5 13C4.80222 13 4.60888 12.9414 4.44443 12.8315C4.27998 12.7216 4.15181 12.5654 4.07612 12.3827C4.00043 12.2 3.98063 11.9989 4.01922 11.8049C4.0578 11.6109 4.15304 11.4327 4.29289 11.2929C4.43275 11.153 4.61093 11.0578 4.80491 11.0192C4.99889 10.9806 5.19996 11.0004 5.38268 11.0761C5.56541 11.1518 5.72159 11.28 5.83147 11.4444C5.94135 11.6089 6 11.8022 6 12C6 12.2652 5.89464 12.5196 5.70711 12.7071C5.51957 12.8946 5.26522 13 5 13ZM10.0625 11.5H6.9375C6.82735 11.0698 6.57715 10.6885 6.22635 10.4162C5.87554 10.1439 5.44409 9.99608 5 9.99608C4.55592 9.99608 4.12446 10.1439 3.77366 10.4162C3.42285 10.6885 3.17265 11.0698 3.0625 11.5H2V9.5H11V10.2694C10.7701 10.4023 10.5688 10.5795 10.4079 10.7907C10.247 11.002 10.1296 11.243 10.0625 11.5ZM12 13C11.8022 13 11.6089 12.9414 11.4444 12.8315C11.28 12.7216 11.1518 12.5654 11.0761 12.3827C11.0004 12.2 10.9806 11.9989 11.0192 11.8049C11.0578 11.6109 11.153 11.4327 11.2929 11.2929C11.4327 11.153 11.6109 11.0578 11.8049 11.0192C11.9989 10.9806 12.2 11.0004 12.3827 11.0761C12.5654 11.1518 12.7216 11.28 12.8315 11.4444C12.9414 11.6089 13 11.8022 13 12C13 12.2652 12.8946 12.5196 12.7071 12.7071C12.5196 12.8946 12.2652 13 12 13ZM15 11.5H13.9375C13.826 11.0708 13.5754 10.6908 13.2247 10.4193C12.8741 10.1479 12.4434 10.0004 12 10V8H15V11.5Z" fill="#0EA674"/>
</g>
<defs>
<clipPath id="clip0_128_496">
<rect width="16" height="16" fill="white"/>
</clipPath>
</defs>
</svg>
